<?xml version="1.0" standalone="no"?>
<!DOCTYPE svg PUBLIC "-//W3C//DTD SVG 20010904//EN"
 "http://www.w3.org/TR/2001/REC-SVG-20010904/DTD/svg10.dtd">
<svg version="1.0" xmlns="http://www.w3.org/2000/svg"
 width="256.000000pt" height="256.000000pt" viewBox="0 0 256.000000 256.000000"
 preserveAspectRatio="xMidYMid meet">
<metadata>
Created by potrace 1.11, written by Peter Selinger 2001-2013
</metadata>
<g transform="translate(0.000000,256.000000) scale(0.100000,-0.100000)"
fill="#000000" stroke="none">
<path d="M1709 2395 c-3 -2 -25 -7 -49 -10 -25 -3 -135 -21 -245 -40 -110 -18
-218 -36 -240 -39 -23 -4 -50 -8 -62 -10 -11 -3 -36 -7 -54 -10 -46 -7 -397
-65 -434 -71 -52 -9 -89 -14 -130 -20 -247 -36 -268 -55 -243 -215 4 -25 10
-61 13 -80 5 -35 15 -91 21 -120 2 -8 6 -33 9 -55 5 -38 7 -54 20 -122 3 -16
8 -44 11 -63 3 -19 7 -46 10 -60 2 -14 7 -41 10 -60 3 -19 9 -60 14 -90 16
-93 19 -114 25 -154 4 -21 9 -48 11 -60 2 -11 9 -50 15 -86 5 -36 12 -78 15
-95 10 -52 13 -69 18 -105 9 -56 18 -113 22 -135 3 -11 6 -35 9 -54 2 -18 6
-41 9 -50 3 -9 7 -36 10 -61 3 -25 8 -56 11 -70 3 -14 7 -41 10 -60 3 -19 7
-44 9 -55 14 -72 19 -112 17 -123 -1 -6 3 -12 10 -12 6 0 9 -7 6 -14 -4 -10
-1 -13 9 -9 7 3 14 1 14 -5 0 -18 86 -33 106 -20 6 5 35 10 65 12 30 3 54 5
54 6 0 9 52 5 57 -4 5 -7 8 -4 8 7 0 14 7 18 28 16 15 -1 34 1 42 4 8 3 33 8
55 12 22 3 56 9 75 13 19 3 54 6 77 7 22 0 39 3 37 7 -6 10 102 21 117 13 8
-6 10 -4 4 5 -6 10 -1 12 19 8 14 -3 26 -2 26 2 0 5 15 7 34 6 19 -1 32 2 30
6 -6 10 26 5 44 -6 8 -4 11 -3 10 5 -2 6 3 14 11 17 8 3 11 0 7 -6 -4 -6 6 -5
21 3 34 18 47 19 37 3 -6 -10 -4 -10 7 -2 21 17 61 25 52 11 -4 -7 0 -6 10 1
9 8 21 11 27 7 5 -3 10 -2 10 2 0 5 12 10 28 11 15 1 63 8 107 16 44 8 83 12
87 10 3 -2 9 2 11 8 4 10 6 10 6 0 1 -9 6 -10 19 -3 11 6 39 12 63 15 81 9
159 32 159 47 0 6 4 8 8 5 5 -3 10 0 11 7 7 35 7 102 1 136 l-7 39 66 38 c36
22 73 42 82 46 28 11 29 22 13 119 -36 224 -107 671 -119 749 -2 19 -7 46 -10
60 -3 14 -7 41 -10 60 -5 40 -43 272 -50 310 -3 14 -7 45 -10 70 -8 69 -13 78
-48 86 -18 4 -34 8 -37 9 -3 1 -33 7 -68 15 -37 7 -66 19 -71 29 -5 9 -12 43
-16 76 -10 78 -52 125 -112 125 -22 0 -42 -2 -44 -5z"/>
<path d="M2090 379 c0 -5 5 -7 10 -4 6 3 10 8 10 11 0 2 -4 4 -10 4 -5 0 -10
-5 -10 -11z"/>
<path d="M610 140 c0 -5 5 -10 11 -10 5 0 7 5 4 10 -3 6 -8 10 -11 10 -2 0 -4
-4 -4 -10z"/>
</g>
</svg>
